<svg width="720" height="720" viewBox="0 0 720 720" fill="none" xmlns="http://www.w3.org/2000/svg">
  <rect width="720" height="720" rx="28" fill="#FFFFFF"/>
  <rect x="14" y="14" width="692" height="692" rx="18" stroke="#111111" stroke-width="16"/>
  <path d="M352 72L604 218V294L352 150L100 294V218L352 72Z" fill="url(#topA)"/>
  <path d="M100 426H452V466H100V426Z" fill="#139884"/>
  <path d="M232 506H604V546H232V506Z" fill="#139884"/>
  <path d="M100 586L352 730L604 586V510L352 654L100 510V586Z" fill="url(#bottomA)" transform="translate(0 -80)"/>
  <text x="64" y="286" font-family="Arial Black, Impact, Arial, sans-serif" font-size="92" font-style="italic" font-weight="900" fill="#171717">HENS</text>
  <text x="396" y="502" font-family="Arial Black, Impact, Arial, sans-serif" font-size="92" font-style="italic" font-weight="900" fill="#171717">LINE</text>
  <defs>
    <linearGradient id="topA" x1="100" y1="72" x2="604" y2="294" gradientUnits="userSpaceOnUse">
      <stop stop-color="#16A085"/>
      <stop offset="0.52" stop-color="#66C7B7"/>
      <stop offset="1" stop-color="#00584D"/>
    </linearGradient>
    <linearGradient id="bottomA" x1="100" y1="510" x2="604" y2="730" gradientUnits="userSpaceOnUse">
      <stop stop-color="#139884"/>
      <stop offset="0.52" stop-color="#66C7B7"/>
      <stop offset="1" stop-color="#00584D"/>
    </linearGradient>
  </defs>
</svg>
